<!-- Generator: Adobe Illustrator 19.2.1, SVG Export Plug-In  -->
<svg version="1.1"
	 xmlns="http://www.w3.org/2000/svg" xmlns:xlink="http://www.w3.org/1999/xlink" xmlns:a="http://ns.adobe.com/AdobeSVGViewerExtensions/3.0/"
	 x="0px" y="0px" width="339.245px" height="196.249px" viewBox="0 0 339.245 196.249"
	 style="enable-background:new 0 0 339.245 196.249;" xml:space="preserve">
<style type="text/css">
	.st0{fill:#0B272B;}
	.st1{fill:#0B5861;}
	.st2{fill:#168DA0;}
</style>
<defs>
</defs>
<g>
	<g>
		<g>
			<path class="st0" d="M168.853,113.404L146.358,43.5h18.396l13.771,47.828h0.631L193.24,43.5h17.765l-23.126,69.903H168.853z"/>
			<path class="st0" d="M225.72,35.511c5.571,0,9.355,3.89,9.355,8.725c0,5.046-3.785,8.726-9.355,8.726
				c-5.782,0-9.355-3.68-9.355-8.726C216.364,39.401,219.938,35.511,225.72,35.511z M216.89,113.404v-53.82h17.66v53.82H216.89z"/>
			<path class="st0" d="M281.222,96.9l6.202,11.879c-4.835,3.784-11.458,6.202-19.762,6.202c-15.768,0-25.649-9.566-25.649-27.856
				c0-20.813,13.35-29.118,25.964-29.118c7.569,0,15.242,2.523,20.604,10.933l-10.722,9.146c-2.523-3.469-5.256-6.202-9.146-6.202
				c-5.781,0-9.04,5.15-9.04,14.506s3.469,14.717,10.512,14.717C273.863,101.105,276.912,99.949,281.222,96.9z"/>
			<path class="st0" d="M314.648,58.006c8.409,0,24.597,2.523,24.597,27.226c0,19.763-11.563,29.854-26.069,29.854
				c-15.032,0-24.282-9.04-24.282-28.171C288.894,64.839,303.19,58.006,314.648,58.006z M321.06,86.809
				c0-10.722-1.787-16.188-7.148-16.188c-4.941,0-7.148,5.571-7.148,14.296c0,9.04,0.946,17.345,7.148,17.345
				C319.063,102.261,321.06,97.111,321.06,86.809z"/>
		</g>
	</g>
	<g>
		<g>
			<path class="st1" d="M167.156,148.033c2.094,0.822,4.039,2.281,6.807,2.468c0.785,0.188,1.646,0.3,2.618,0.112l-0.71,4.899
				c-0.71,0.037-1.347,0.037-1.982,0c-5.311-0.188-7.704-3.516-12.042-3.628c-0.748-0.037-1.533,0.037-2.431,0.225l0.486-3.254
				c-5.61-0.822-8.826-5.086-8.826-12.641c0-9.574,6.134-12.94,11.557-12.94c5.759,0,10.808,3.44,10.808,12.94
				C173.439,142.423,171.046,146.35,167.156,148.033z M162.406,144.032c3.403,0,4.413-3.927,4.413-7.704
				c0-3.104-0.823-7.63-4.563-7.63c-3.329,0-4.525,3.74-4.525,7.405C157.732,139.543,158.48,144.032,162.406,144.032z"/>
			<path class="st1" d="M193.186,129.446v15.521l0.411,3.628h-5.273l-0.262-1.795h-0.149c-1.159,1.533-2.955,2.281-4.937,2.281
				c-4.264,0-6.358-2.244-6.358-6.77v-12.865h6.283v12.043c0,1.683,0.187,2.842,1.758,2.842c1.309,0,2.282-1.047,2.282-2.543
				v-12.342H193.186z"/>
			<path class="st1" d="M197.112,142.685c1.384,0.897,3.89,1.945,5.573,1.945c1.122,0,1.795-0.374,1.795-1.422
				c0-1.122-1.084-1.496-2.431-1.907c-2.955-0.935-5.909-2.057-5.909-6.096c0-4.114,3.291-6.32,7.48-6.32
				c2.992,0,5.685,1.121,7.517,2.805l-2.842,3.59c-1.646-1.271-3.179-1.944-4.338-1.944c-1.047,0-1.72,0.448-1.72,1.347
				c0,1.084,1.047,1.57,2.581,2.057c2.768,0.897,5.872,2.095,5.872,6.059c0,4.188-3.029,6.396-7.629,6.396
				c-3.478,0-6.396-1.271-7.555-2.095L197.112,142.685z"/>
			<path class="st1" d="M219.59,156.448h-6.283v-26.142c3.066-1.047,6.395-1.421,8.34-1.421c6.021,0,9.088,3.403,9.088,10.022
				c0,6.657-3.216,10.285-8.377,10.285c-0.972,0-2.057-0.225-2.768-0.523V156.448z M221.086,133.56c-0.411,0-1.01,0.074-1.496,0.224
				v10.21c0.636,0.337,1.234,0.486,1.758,0.486c2.506,0,3.104-2.954,3.104-5.311C224.452,136.701,224.078,133.56,221.086,133.56z"/>
			<path class="st1" d="M236.793,120.881c1.982,0,3.329,1.384,3.329,3.104c0,1.795-1.346,3.104-3.329,3.104
				c-2.057,0-3.329-1.309-3.329-3.104C233.464,122.265,234.736,120.881,236.793,120.881z M233.651,148.594v-19.148h6.283v19.148
				H233.651z"/>
			<path class="st1" d="M253.772,129.072v-6.47h6.208v21.916l0.411,4.076h-5.236l-0.336-1.795h-0.225
				c-0.972,1.57-2.505,2.355-4.637,2.355c-6.283,0-7.368-4.898-7.368-9.2c0-6.47,3.478-11.069,9.387-11.069
				C252.8,128.885,253.323,128.959,253.772,129.072z M253.772,133.597c-0.411-0.149-0.897-0.262-1.458-0.262
				c-2.917,0-3.516,3.328-3.516,6.134c0,2.879,0.561,5.235,2.618,5.235c1.458,0,2.356-1.084,2.356-2.057V133.597z"/>
			<path class="st1" d="M278.979,134.719c0,5.423-6.133,6.508-9.798,6.731c0.149,1.684,1.421,3.067,3.703,3.067
				c1.795,0,3.44-0.786,4.637-1.571l1.646,4.114c-0.187,0.187-2.992,2.132-7.181,2.132c-6.582,0-9.163-3.965-9.163-9.649
				c0-5.423,3.216-10.658,9.611-10.658C276.361,128.885,278.979,130.792,278.979,134.719z M272.097,133.26
				c-1.87,0-3.104,1.833-3.216,4.413c2.02-0.112,4.675-1.047,4.675-2.88C273.556,133.859,272.995,133.26,272.097,133.26z"/>
		</g>
	</g>
	<path class="st2" d="M63.568,47.537c-2.749,0-5.118,0.666-7.148,1.845c-3.052,5.446-4.323,12.925-4.323,20.33
		c0,13.264,2.883,30.565,18.021,30.565c2.611,0,4.85-0.608,6.772-1.683c3.123-5.727,4.266-13.768,4.266-21.645
		C81.156,64.983,77.985,47.537,63.568,47.537z"/>
	<path class="st2" d="M61.982,136.922c-2.884-0.142-5.912,0.145-9.372,0.865l1.875-12.544
		c-21.625-3.172-34.024-19.607-34.024-48.728c0-19.262,6.446-31.995,15.576-39.777C44.852,24.965,58.409,20.26,70.982,20.26
		c22.203,0,41.666,13.264,41.666,49.884c0,18.696-5.65,32.001-15.263,40.031c-1.858,2.528-3.969,4.746-6.312,6.655
		c9.309,5.977,29.642,9.49,33.183,8.9c9.748-20.424,16.735-41.02,16.735-55.233C140.992,31.562,109.43,0,70.496,0S0,31.562,0,70.496
		s50.967,125.753,70.496,125.753c8.704,0,25.338-20.079,40.263-45.253c-0.79-0.016-1.574-0.042-2.354-0.087
		C87.932,150.186,78.705,137.355,61.982,136.922z"/>
	<path class="st1" d="M91.073,116.829c2.343-1.909,4.454-4.127,6.312-6.655c-2.692,2.249-5.677,4.107-8.957,5.526
		C89.315,116.049,90.195,116.431,91.073,116.829z"/>
	<path class="st1" d="M87.13,70.576c0-11.966-3.172-29.412-17.588-29.412c-6.107,0-10.349,3.27-13.122,8.217
		c2.03-1.179,4.399-1.845,7.148-1.845c14.417,0,17.588,17.446,17.588,29.412c0,7.877-1.144,15.918-4.266,21.645
		C84.626,94.266,87.13,82.241,87.13,70.576z"/>
	<path class="st1" d="M114.378,144.537c-20.472-0.723-29.699-13.554-46.422-13.987c-2.884-0.142-5.912,0.145-9.372,0.865
		l1.875-12.544C38.833,115.7,26.435,99.265,26.435,70.144c0-14.708,3.762-25.605,9.602-33.405
		c-9.13,7.783-15.576,20.515-15.576,39.777c0,29.121,12.398,45.557,34.024,48.728l-1.875,12.544c3.46-0.72,6.488-1.008,9.372-0.865
		c16.723,0.433,25.95,13.264,46.422,13.987c0.78,0.045,1.565,0.071,2.354,0.087c1.256-2.118,2.499-4.273,3.725-6.455
		C114.448,144.54,114.413,144.539,114.378,144.537z"/>
</g>
</svg>