<!-- Generator: Adobe Illustrator 19.2.1, SVG Export Plug-In  -->
<svg version="1.1"
	 xmlns="http://www.w3.org/2000/svg" xmlns:xlink="http://www.w3.org/1999/xlink" xmlns:a="http://ns.adobe.com/AdobeSVGViewerExtensions/3.0/"
	 x="0px" y="0px" width="379.17px" height="196.249px" viewBox="0 0 379.17 196.249"
	 style="enable-background:new 0 0 379.17 196.249;" xml:space="preserve">
<style type="text/css">
	.st0{fill:#1C2522;}
	.st1{fill:#0E644C;}
	.st2{fill:#15A17D;}
</style>
<defs>
</defs>
<g>
	<g>
		<g>
			<path class="st0" d="M152.122,92.59c4.836,3.049,13.98,6.412,19.973,6.412c3.89,0,7.253-1.261,7.253-6.097
				c0-4.31-4.521-5.781-10.617-7.568c-8.935-2.733-20.077-7.043-20.077-21.129s10.933-21.97,25.438-21.97
				c9.986,0,19.446,4.415,25.648,10.407l-9.355,11.878c-5.571-4.1-11.458-7.147-16.293-7.147c-3.364,0-6.622,1.576-6.622,5.466
				c0,4.415,4.835,5.991,11.353,8.094c9.565,3.049,19.867,7.253,19.867,21.339c0,14.611-11.143,22.391-26.7,22.391
				c-10.512,0-21.444-4.205-25.964-7.254L152.122,92.59z"/>
			<path class="st0" d="M223.916,40.347v19.236h13.14v13.771h-13.14v21.233c0,5.782,2.733,7.254,6.307,7.254
				c1.998,0,3.89-0.736,5.677-1.683l3.784,11.038c-3.259,2.102-9.04,3.889-14.927,3.889c-17.87,0-18.605-10.406-18.605-20.918
				v-53.82H223.916z"/>
			<path class="st0" d="M289.824,102.051l1.156,11.353h-14.927l-0.735-4.94l-0.631-0.105c-3.153,4.94-8.094,6.623-13.561,6.623
				c-16.083,0-20.183-12.93-20.183-26.069c0-18.501,9.355-30.905,28.487-30.905c3.784,0,11.878,0.946,20.393,4.205V102.051z
				 M272.374,71.146c-1.156-0.42-2.943-0.735-4.836-0.735c-6.832,0-9.145,8.199-9.145,17.239c0,8.094,1.472,14.821,7.568,14.821
				c4.1,0,6.412-2.943,6.412-5.991V71.146z"/>
			<path class="st0" d="M318.204,40.347v19.236h13.14v13.771h-13.14v21.233c0,5.782,2.733,7.254,6.307,7.254
				c1.998,0,3.89-0.736,5.677-1.683l3.784,11.038c-3.259,2.102-9.04,3.889-14.927,3.889c-17.87,0-18.605-10.406-18.605-20.918
				v-53.82H318.204z"/>
			<path class="st0" d="M339.751,96.795c3.89,2.522,10.933,5.466,15.663,5.466c3.153,0,5.045-1.051,5.045-3.994
				c0-3.153-3.048-4.205-6.832-5.361c-8.305-2.628-16.608-5.781-16.608-17.134c0-11.563,9.25-17.766,21.023-17.766
				c8.409,0,15.978,3.154,21.128,7.884l-7.988,10.092c-4.625-3.574-8.936-5.466-12.194-5.466c-2.943,0-4.835,1.261-4.835,3.784
				c0,3.048,2.943,4.415,7.253,5.781c7.779,2.522,16.504,5.887,16.504,17.029c0,11.772-8.515,17.975-21.444,17.975
				c-9.776,0-17.975-3.574-21.233-5.887L339.751,96.795z"/>
		</g>
	</g>
	<g>
		<g>
			<path class="st1" d="M165.877,148.033c2.095,0.822,4.039,2.281,6.807,2.468c0.785,0.188,1.646,0.3,2.618,0.112l-0.711,4.899
				c-0.71,0.037-1.347,0.037-1.982,0c-5.311-0.188-7.704-3.516-12.042-3.628c-0.748-0.037-1.533,0.037-2.431,0.225l0.485-3.254
				c-5.609-0.822-8.826-5.086-8.826-12.641c0-9.574,6.134-12.94,11.557-12.94c5.76,0,10.809,3.44,10.809,12.94
				C172.161,142.423,169.767,146.35,165.877,148.033z M161.127,144.032c3.403,0,4.413-3.927,4.413-7.704
				c0-3.104-0.822-7.63-4.563-7.63c-3.328,0-4.525,3.74-4.525,7.405C156.453,139.543,157.201,144.032,161.127,144.032z"/>
			<path class="st1" d="M191.908,129.446v15.521l0.411,3.628h-5.273l-0.262-1.795h-0.149c-1.159,1.533-2.955,2.281-4.937,2.281
				c-4.264,0-6.358-2.244-6.358-6.77v-12.865h6.283v12.043c0,1.683,0.187,2.842,1.758,2.842c1.309,0,2.281-1.047,2.281-2.543
				v-12.342H191.908z"/>
			<path class="st1" d="M195.833,142.685c1.384,0.897,3.89,1.945,5.573,1.945c1.122,0,1.795-0.374,1.795-1.422
				c0-1.122-1.085-1.496-2.431-1.907c-2.955-0.935-5.909-2.057-5.909-6.096c0-4.114,3.291-6.32,7.479-6.32
				c2.992,0,5.685,1.121,7.518,2.805l-2.843,3.59c-1.646-1.271-3.179-1.944-4.338-1.944c-1.048,0-1.721,0.448-1.721,1.347
				c0,1.084,1.047,1.57,2.581,2.057c2.768,0.897,5.871,2.095,5.871,6.059c0,4.188-3.029,6.396-7.629,6.396
				c-3.479,0-6.396-1.271-7.555-2.095L195.833,142.685z"/>
			<path class="st1" d="M218.311,156.448h-6.283v-26.142c3.066-1.047,6.396-1.421,8.34-1.421c6.021,0,9.088,3.403,9.088,10.022
				c0,6.657-3.216,10.285-8.377,10.285c-0.973,0-2.057-0.225-2.768-0.523V156.448z M219.807,133.56c-0.411,0-1.01,0.074-1.496,0.224
				v10.21c0.636,0.337,1.234,0.486,1.758,0.486c2.506,0,3.104-2.954,3.104-5.311C223.173,136.701,222.799,133.56,219.807,133.56z"/>
			<path class="st1" d="M235.514,120.881c1.982,0,3.328,1.384,3.328,3.104c0,1.795-1.346,3.104-3.328,3.104
				c-2.057,0-3.329-1.309-3.329-3.104C232.185,122.265,233.457,120.881,235.514,120.881z M232.373,148.594v-19.148h6.283v19.148
				H232.373z"/>
			<path class="st1" d="M252.494,129.072v-6.47h6.208v21.916l0.411,4.076h-5.235l-0.337-1.795h-0.225
				c-0.972,1.57-2.505,2.355-4.637,2.355c-6.283,0-7.368-4.898-7.368-9.2c0-6.47,3.479-11.069,9.388-11.069
				C251.521,128.885,252.044,128.959,252.494,129.072z M252.494,133.597c-0.411-0.149-0.897-0.262-1.459-0.262
				c-2.917,0-3.516,3.328-3.516,6.134c0,2.879,0.562,5.235,2.618,5.235c1.459,0,2.356-1.084,2.356-2.057V133.597z"/>
			<path class="st1" d="M277.7,134.719c0,5.423-6.133,6.508-9.798,6.731c0.149,1.684,1.421,3.067,3.702,3.067
				c1.795,0,3.44-0.786,4.638-1.571l1.646,4.114c-0.188,0.187-2.992,2.132-7.181,2.132c-6.582,0-9.163-3.965-9.163-9.649
				c0-5.423,3.217-10.658,9.611-10.658C275.082,128.885,277.7,130.792,277.7,134.719z M270.819,133.26
				c-1.87,0-3.104,1.833-3.217,4.413c2.02-0.112,4.675-1.047,4.675-2.88C272.277,133.859,271.716,133.26,270.819,133.26z"/>
		</g>
	</g>
	<path class="st2" d="M62.289,47.537c-2.749,0-5.118,0.666-7.148,1.845c-3.052,5.446-4.323,12.925-4.323,20.33
		c0,13.264,2.883,30.565,18.021,30.565c2.611,0,4.85-0.608,6.772-1.683c3.123-5.727,4.266-13.768,4.266-21.645
		C79.877,64.983,76.706,47.537,62.289,47.537z"/>
	<path class="st2" d="M61.982,136.922c-2.884-0.142-5.912,0.145-9.372,0.865l1.875-12.544
		c-21.625-3.172-34.024-19.607-34.024-48.728c0-19.262,6.446-31.995,15.576-39.777C44.852,24.965,58.409,20.26,70.982,20.26
		c22.203,0,41.666,13.264,41.666,49.884c0,18.696-5.65,32.001-15.263,40.031c-1.858,2.528-3.969,4.746-6.312,6.655
		c9.309,5.977,29.642,9.49,33.183,8.9c9.748-20.424,16.735-41.02,16.735-55.233C140.992,31.562,109.43,0,70.496,0S0,31.562,0,70.496
		s50.967,125.753,70.496,125.753c8.704,0,25.338-20.079,40.263-45.253c-0.79-0.016-1.574-0.042-2.354-0.087
		C87.932,150.186,78.705,137.355,61.982,136.922z"/>
	<path class="st1" d="M89.794,116.829c2.343-1.909,4.454-4.127,6.312-6.655c-2.692,2.249-5.677,4.107-8.957,5.526
		C88.036,116.049,88.916,116.431,89.794,116.829z"/>
	<path class="st1" d="M85.851,70.576c0-11.966-3.172-29.412-17.588-29.412c-6.107,0-10.349,3.27-13.122,8.217
		c2.03-1.179,4.399-1.845,7.148-1.845c14.417,0,17.588,17.446,17.588,29.412c0,7.877-1.144,15.918-4.266,21.645
		C83.348,94.266,85.851,82.241,85.851,70.576z"/>
	<path class="st1" d="M113.099,144.537c-20.472-0.723-29.699-13.554-46.422-13.987c-2.884-0.142-5.912,0.145-9.372,0.865
		l1.875-12.544C37.554,115.7,25.156,99.265,25.156,70.144c0-14.708,3.762-25.605,9.602-33.405
		c-9.13,7.783-15.576,20.515-15.576,39.777c0,29.121,12.398,45.557,34.024,48.728l-1.875,12.544c3.46-0.72,6.488-1.008,9.372-0.865
		c16.723,0.433,25.95,13.264,46.422,13.987c0.78,0.045,1.565,0.071,2.354,0.087c1.256-2.118,2.499-4.273,3.725-6.455
		C113.17,144.54,113.134,144.539,113.099,144.537z"/>
</g>
</svg>